<svg width="133" height="44" viewBox="0 0 133 44" fill="none" xmlns="http://www.w3.org/2000/svg">
<rect x="1" y="0.5" width="131" height="43" rx="6.5" fill="black"/>
<path d="M90.1784 21.121V23.6411H88.5988V25.2938H90.1784V30.9093C90.1784 32.8268 91.0459 33.5938 93.2281 33.5938C93.6116 33.5938 93.9769 33.5481 94.2965 33.4933V31.8589C94.0225 31.8863 93.849 31.9046 93.5477 31.9046C92.5707 31.9046 92.1416 31.448 92.1416 30.4071V25.2938H94.2965V23.6411H92.1416V21.121H90.1784Z" fill="white"/>
<path d="M99.8557 33.7307C102.759 33.7307 104.54 31.7859 104.54 28.5627C104.54 25.3577 102.75 23.4037 99.8557 23.4037C96.9521 23.4037 95.1624 25.3577 95.1624 28.5627C95.1624 31.7859 96.943 33.7307 99.8557 33.7307ZM99.8557 31.9867C98.1482 31.9867 97.1895 30.7358 97.1895 28.5627C97.1895 26.4078 98.1482 25.1477 99.8557 25.1477C101.554 25.1477 102.522 26.4078 102.522 28.5627C102.522 30.7267 101.554 31.9867 99.8557 31.9867Z" fill="white"/>
<path d="M106.063 33.539H108.026V27.6678C108.026 26.2708 109.076 25.3303 110.565 25.3303C110.912 25.3303 111.496 25.3943 111.66 25.449V23.5133C111.45 23.4585 111.076 23.4311 110.784 23.4311C109.487 23.4311 108.382 24.1433 108.099 25.1203H107.953V23.5955H106.063V33.539Z" fill="white"/>
<path d="M116.535 25.0747C117.987 25.0747 118.936 26.0882 118.982 27.6496H113.96C114.07 26.0973 115.083 25.0747 116.535 25.0747ZM118.973 30.8545C118.608 31.6306 117.795 32.0598 116.608 32.0598C115.037 32.0598 114.024 30.955 113.96 29.211V29.1014H120.982V28.4166C120.982 25.2938 119.311 23.4037 116.544 23.4037C113.741 23.4037 111.96 25.4217 111.96 28.5992C111.96 31.7767 113.704 33.7307 116.553 33.7307C118.827 33.7307 120.415 32.635 120.863 30.8545H118.973Z" fill="white"/>
<path d="M77.3045 29.867C77.4559 32.3087 79.4907 33.8702 82.5191 33.8702C85.7557 33.8702 87.781 32.233 87.781 29.6209C87.781 27.5673 86.6264 26.4316 83.8251 25.7786L82.3203 25.4095C80.5411 24.9931 79.8219 24.4347 79.8219 23.46C79.8219 22.2297 80.9386 21.4252 82.6137 21.4252C84.2037 21.4252 85.3015 22.2107 85.5002 23.4694H87.5633C87.4403 21.1697 85.415 19.5514 82.6421 19.5514C79.661 19.5514 77.6736 21.1697 77.6736 23.6019C77.6736 25.6083 78.7998 26.8007 81.2699 27.378L83.0301 27.8039C84.8377 28.2298 85.6327 28.8544 85.6327 29.8954C85.6327 31.1068 84.3835 31.9869 82.68 31.9869C80.8535 31.9869 79.5853 31.1636 79.4055 29.867H77.3045Z" fill="white"/>
<path d="M56.9684 23.4311C55.6171 23.4311 54.4483 24.1068 53.8457 25.239H53.6996V23.5955H51.8095V36.8444H53.7726V32.0324H53.9279C54.4483 33.0824 55.5714 33.7033 56.9867 33.7033C59.4977 33.7033 61.0956 31.7219 61.0956 28.5627C61.0956 25.4034 59.4977 23.4311 56.9684 23.4311ZM56.4114 31.9411C54.7679 31.9411 53.7361 30.6445 53.7361 28.5718C53.7361 26.49 54.7679 25.1934 56.4206 25.1934C58.0824 25.1934 59.0777 26.4626 59.0777 28.5627C59.0777 30.6719 58.0824 31.9411 56.4114 31.9411Z" fill="white"/>
<path d="M67.9649 23.4311C66.6135 23.4311 65.4448 24.1068 64.8422 25.239H64.6961V23.5955H62.806V36.8444H64.7691V32.0324H64.9243C65.4448 33.0824 66.5679 33.7033 67.9832 33.7033C70.4942 33.7033 72.0921 31.7219 72.0921 28.5627C72.0921 25.4034 70.4942 23.4311 67.9649 23.4311ZM67.4079 31.9411C65.7644 31.9411 64.7326 30.6445 64.7326 28.5718C64.7326 26.49 65.7644 25.1934 67.4171 25.1934C69.0789 25.1934 70.0741 26.4626 70.0741 28.5627C70.0741 30.6719 69.0789 31.9411 67.4079 31.9411Z" fill="white"/>
<path d="M48.2873 33.539H50.5397L45.609 19.8826H43.3282L38.3976 33.539H40.5742L41.8329 29.9143H47.0381L48.2873 33.539ZM44.3598 22.3622H44.5207L46.4986 28.1351H42.3724L44.3598 22.3622Z" fill="white"/>
<path d="M27.7459 22.3309C27.7697 20.4818 28.7628 18.7322 30.3381 17.7637C29.3443 16.3443 27.6797 15.4444 25.9478 15.3902C24.1007 15.1963 22.3099 16.4955 21.3686 16.4955C20.4091 16.4955 18.9599 15.4095 17.3993 15.4416C15.3651 15.5073 13.4687 16.6638 12.4791 18.4422C10.3517 22.1255 11.9385 27.5386 13.9764 30.5159C14.996 31.9738 16.1876 33.6023 17.7468 33.5445C19.2726 33.4813 19.8424 32.5716 21.6841 32.5716C23.5088 32.5716 24.0434 33.5445 25.6342 33.5078C27.2714 33.4813 28.303 32.0435 29.2868 30.5718C30.0194 29.533 30.5831 28.3849 30.9571 27.17C29.033 26.3562 27.7481 24.42 27.7459 22.3309Z" fill="white"/>
<path d="M24.7411 13.4322C25.6337 12.3606 26.0735 10.9832 25.967 9.59253C24.6032 9.73577 23.3434 10.3876 22.4387 11.4181C21.554 12.425 21.0936 13.7781 21.1806 15.1156C22.5449 15.1297 23.8861 14.4955 24.7411 13.4322Z" fill="white"/>
<path d="M43.554 9.14489H42.4915C42.4612 8.97064 42.4053 8.81629 42.3239 8.68182C42.2424 8.54545 42.1411 8.42992 42.0199 8.33523C41.8987 8.24053 41.7604 8.16951 41.6051 8.12216C41.4517 8.07292 41.286 8.0483 41.108 8.0483C40.7917 8.0483 40.5114 8.12784 40.267 8.28693C40.0227 8.44413 39.8314 8.67519 39.6932 8.98011C39.5549 9.28314 39.4858 9.65341 39.4858 10.0909C39.4858 10.536 39.5549 10.911 39.6932 11.2159C39.8333 11.5189 40.0246 11.7481 40.267 11.9034C40.5114 12.0568 40.7907 12.1335 41.1051 12.1335C41.2794 12.1335 41.4422 12.1108 41.5938 12.0653C41.7472 12.018 41.8845 11.9489 42.0057 11.858C42.1288 11.767 42.232 11.6553 42.3153 11.5227C42.4006 11.3902 42.4593 11.2386 42.4915 11.0682L43.554 11.0739C43.5142 11.3504 43.428 11.6098 43.2955 11.8523C43.1648 12.0947 42.9934 12.3087 42.7812 12.4943C42.5691 12.678 42.321 12.822 42.0369 12.9261C41.7528 13.0284 41.4375 13.0795 41.0909 13.0795C40.5795 13.0795 40.1231 12.9612 39.7216 12.7244C39.3201 12.4877 39.0038 12.1458 38.7727 11.6989C38.5417 11.2519 38.4261 10.7159 38.4261 10.0909C38.4261 9.46402 38.5426 8.92803 38.7756 8.48295C39.0085 8.03598 39.3258 7.69413 39.7273 7.45739C40.1288 7.22064 40.5833 7.10227 41.0909 7.10227C41.4148 7.10227 41.7159 7.14773 41.9943 7.23864C42.2727 7.32955 42.5208 7.46307 42.7386 7.6392C42.9564 7.81345 43.1354 8.02746 43.2756 8.28125C43.4176 8.53314 43.5104 8.82102 43.554 9.14489ZM49.718 10.0909C49.718 10.7178 49.6006 11.2547 49.3658 11.7017C49.1328 12.1468 48.8146 12.4877 48.4112 12.7244C48.0097 12.9612 47.5542 13.0795 47.0447 13.0795C46.5353 13.0795 46.0788 12.9612 45.6754 12.7244C45.2739 12.4858 44.9557 12.1439 44.7209 11.6989C44.4879 11.2519 44.3714 10.7159 44.3714 10.0909C44.3714 9.46402 44.4879 8.92803 44.7209 8.48295C44.9557 8.03598 45.2739 7.69413 45.6754 7.45739C46.0788 7.22064 46.5353 7.10227 47.0447 7.10227C47.5542 7.10227 48.0097 7.22064 48.4112 7.45739C48.8146 7.69413 49.1328 8.03598 49.3658 8.48295C49.6006 8.92803 49.718 9.46402 49.718 10.0909ZM48.6584 10.0909C48.6584 9.64962 48.5893 9.27746 48.451 8.97443C48.3146 8.66951 48.1252 8.43939 47.8828 8.28409C47.6404 8.12689 47.361 8.0483 47.0447 8.0483C46.7285 8.0483 46.4491 8.12689 46.2067 8.28409C45.9643 8.43939 45.7739 8.66951 45.6357 8.97443C45.4993 9.27746 45.4311 9.64962 45.4311 10.0909C45.4311 10.5322 45.4993 10.9053 45.6357 11.2102C45.7739 11.5133 45.9643 11.7434 46.2067 11.9006C46.4491 12.0559 46.7285 12.1335 47.0447 12.1335C47.361 12.1335 47.6404 12.0559 47.8828 11.9006C48.1252 11.7434 48.3146 11.5133 48.451 11.2102C48.5893 10.9053 48.6584 10.5322 48.6584 10.0909ZM50.7145 7.18182H52.0043L53.7315 11.3977H53.7997L55.527 7.18182H56.8168V13H55.8054V9.00284H55.7514L54.1435 12.983H53.3878L51.7798 8.99432H51.7259V13H50.7145V7.18182ZM59.0185 7.18182V13H57.9645V7.18182H59.0185ZM64.9411 7.18182V13H64.0036L61.2621 9.03693H61.2138V13H60.1598V7.18182H61.103L63.8416 11.1477H63.8928V7.18182H64.9411ZM68.6378 13.0795C68.1037 13.0795 67.634 12.9593 67.2287 12.7188C66.8253 12.4763 66.5099 12.1326 66.2827 11.6875C66.0554 11.2405 65.9418 10.7102 65.9418 10.0966C65.9418 9.62689 66.0099 9.20739 66.1463 8.83807C66.2827 8.46875 66.473 8.1553 66.7173 7.89773C66.9616 7.63826 67.2467 7.44129 67.5724 7.30682C67.8982 7.17045 68.2514 7.10227 68.6321 7.10227C68.9541 7.10227 69.2552 7.14962 69.5355 7.24432C69.8177 7.33712 70.0696 7.4697 70.2912 7.64205C70.5128 7.81439 70.6946 8.01894 70.8366 8.25568C70.9806 8.49242 71.0743 8.75379 71.1179 9.03977H70.044C70.0005 8.88636 69.9361 8.74811 69.8509 8.625C69.7656 8.50189 69.6624 8.39773 69.5412 8.3125C69.42 8.22538 69.2836 8.16004 69.1321 8.11648C68.9825 8.07102 68.8205 8.0483 68.6463 8.0483C68.3319 8.0483 68.0507 8.12689 67.8026 8.28409C67.5545 8.44129 67.3584 8.67235 67.2145 8.97727C67.0724 9.2803 67.0014 9.64962 67.0014 10.0852C67.0014 10.5246 67.0705 10.8968 67.2088 11.2017C67.349 11.5066 67.5421 11.7386 67.7884 11.8977C68.0346 12.0549 68.3196 12.1335 68.6435 12.1335C68.9465 12.1335 69.2088 12.0739 69.4304 11.9545C69.652 11.8352 69.8224 11.6695 69.9418 11.4574C70.063 11.2453 70.1236 11.0009 70.1236 10.7244L70.3111 10.7784H68.7486V9.95455H71.1605V13H70.4048L70.3281 12.3182H70.2969C70.0923 12.5625 69.8565 12.7509 69.5895 12.8835C69.3224 13.0142 69.0052 13.0795 68.6378 13.0795ZM77.3295 8.78125C77.303 8.53314 77.1913 8.33996 76.9943 8.2017C76.7992 8.06345 76.5455 7.99432 76.233 7.99432C76.0133 7.99432 75.8248 8.02746 75.6676 8.09375C75.5104 8.16004 75.3902 8.25 75.3068 8.36364C75.2235 8.47727 75.1809 8.60701 75.179 8.75284C75.179 8.87405 75.2064 8.97917 75.2614 9.06818C75.3182 9.1572 75.3949 9.23295 75.4915 9.29545C75.5881 9.35606 75.6951 9.4072 75.8125 9.44886C75.9299 9.49053 76.0483 9.52557 76.1676 9.55398L76.7131 9.69034C76.9328 9.74148 77.1439 9.81061 77.3466 9.89773C77.5511 9.98485 77.7339 10.0947 77.8949 10.2273C78.0578 10.3598 78.1866 10.5199 78.2812 10.7074C78.3759 10.8949 78.4233 11.1146 78.4233 11.3665C78.4233 11.7074 78.3362 12.0076 78.1619 12.267C77.9877 12.5246 77.7358 12.7263 77.4062 12.8722C77.0786 13.0161 76.6818 13.0881 76.2159 13.0881C75.7633 13.0881 75.3703 13.018 75.0369 12.8778C74.7055 12.7377 74.446 12.5331 74.2585 12.2642C74.0729 11.9953 73.9725 11.6676 73.9574 11.2812H74.9943C75.0095 11.4839 75.072 11.6525 75.1818 11.7869C75.2917 11.9214 75.4347 12.0218 75.6108 12.0881C75.7888 12.1544 75.9877 12.1875 76.2074 12.1875C76.4366 12.1875 76.6373 12.1534 76.8097 12.0852C76.9839 12.0152 77.1203 11.9186 77.2188 11.7955C77.3172 11.6705 77.3674 11.5246 77.3693 11.358C77.3674 11.2064 77.3229 11.0814 77.2358 10.983C77.1487 10.8826 77.0265 10.7992 76.8693 10.733C76.714 10.6648 76.5322 10.6042 76.3239 10.5511L75.6619 10.3807C75.1828 10.2576 74.804 10.071 74.5256 9.82102C74.2491 9.56913 74.1108 9.23485 74.1108 8.81818C74.1108 8.47538 74.2036 8.17519 74.3892 7.91761C74.5767 7.66004 74.8314 7.46023 75.1534 7.31818C75.4754 7.17424 75.84 7.10227 76.2472 7.10227C76.66 7.10227 77.0218 7.17424 77.3324 7.31818C77.6449 7.46023 77.8902 7.65814 78.0682 7.91193C78.2462 8.16383 78.3381 8.4536 78.3438 8.78125H77.3295ZM84.5618 10.0909C84.5618 10.7178 84.4444 11.2547 84.2095 11.7017C83.9766 12.1468 83.6584 12.4877 83.255 12.7244C82.8535 12.9612 82.398 13.0795 81.8885 13.0795C81.379 13.0795 80.9226 12.9612 80.5192 12.7244C80.1177 12.4858 79.7995 12.1439 79.5646 11.6989C79.3317 11.2519 79.2152 10.7159 79.2152 10.0909C79.2152 9.46402 79.3317 8.92803 79.5646 8.48295C79.7995 8.03598 80.1177 7.69413 80.5192 7.45739C80.9226 7.22064 81.379 7.10227 81.8885 7.10227C82.398 7.10227 82.8535 7.22064 83.255 7.45739C83.6584 7.69413 83.9766 8.03598 84.2095 8.48295C84.4444 8.92803 84.5618 9.46402 84.5618 10.0909ZM83.5021 10.0909C83.5021 9.64962 83.433 9.27746 83.2947 8.97443C83.1584 8.66951 82.969 8.43939 82.7266 8.28409C82.4841 8.12689 82.2048 8.0483 81.8885 8.0483C81.5722 8.0483 81.2929 8.12689 81.0504 8.28409C80.808 8.43939 80.6177 8.66951 80.4794 8.97443C80.343 9.27746 80.2749 9.64962 80.2749 10.0909C80.2749 10.5322 80.343 10.9053 80.4794 11.2102C80.6177 11.5133 80.808 11.7434 81.0504 11.9006C81.2929 12.0559 81.5722 12.1335 81.8885 12.1335C82.2048 12.1335 82.4841 12.0559 82.7266 11.9006C82.969 11.7434 83.1584 11.5133 83.2947 11.2102C83.433 10.9053 83.5021 10.5322 83.5021 10.0909ZM90.7571 10.0909C90.7571 10.7178 90.6397 11.2547 90.4048 11.7017C90.1719 12.1468 89.8537 12.4877 89.4503 12.7244C89.0488 12.9612 88.5933 13.0795 88.0838 13.0795C87.5743 13.0795 87.1179 12.9612 86.7145 12.7244C86.313 12.4858 85.9948 12.1439 85.7599 11.6989C85.527 11.2519 85.4105 10.7159 85.4105 10.0909C85.4105 9.46402 85.527 8.92803 85.7599 8.48295C85.9948 8.03598 86.313 7.69413 86.7145 7.45739C87.1179 7.22064 87.5743 7.10227 88.0838 7.10227C88.5933 7.10227 89.0488 7.22064 89.4503 7.45739C89.8537 7.69413 90.1719 8.03598 90.4048 8.48295C90.6397 8.92803 90.7571 9.46402 90.7571 10.0909ZM89.6974 10.0909C89.6974 9.64962 89.6283 9.27746 89.4901 8.97443C89.3537 8.66951 89.1643 8.43939 88.9219 8.28409C88.6795 8.12689 88.4001 8.0483 88.0838 8.0483C87.7675 8.0483 87.4882 8.12689 87.2457 8.28409C87.0033 8.43939 86.813 8.66951 86.6747 8.97443C86.5384 9.27746 86.4702 9.64962 86.4702 10.0909C86.4702 10.5322 86.5384 10.9053 86.6747 11.2102C86.813 11.5133 87.0033 11.7434 87.2457 11.9006C87.4882 12.0559 87.7675 12.1335 88.0838 12.1335C88.4001 12.1335 88.6795 12.0559 88.9219 11.9006C89.1643 11.7434 89.3537 11.5133 89.4901 11.2102C89.6283 10.9053 89.6974 10.5322 89.6974 10.0909ZM96.5348 7.18182V13H95.5973L92.8558 9.03693H92.8075V13H91.7536V7.18182H92.6967L95.4354 11.1477H95.4865V7.18182H96.5348Z" fill="white"/>
<rect x="1" y="0.5" width="131" height="43" rx="6.5" stroke="#A6A6A6"/>
</svg>
