<svg width="135" height="40" viewBox="0 0 135 40" fill="none" xmlns="http://www.w3.org/2000/svg">
<g clip-path="url(#clip0_611_27)">
<path d="M35.6511 8.71094V14.7H37.8135C39.5981 14.7 40.6316 13.6001 40.6316 11.6868C40.6316 9.80249 39.5898 8.71094 37.8135 8.71094H35.6511ZM36.5808 9.55762H37.7097C38.9507 9.55762 39.6853 10.3462 39.6853 11.6992C39.6853 13.073 38.9631 13.8533 37.7097 13.8533H36.5808V9.55762Z" fill="white"/>
<path d="M43.7967 14.7871C45.1165 14.7871 45.9258 13.9031 45.9258 12.438C45.9258 10.9812 45.1124 10.093 43.7967 10.093C42.4769 10.093 41.6634 10.9812 41.6634 12.438C41.6634 13.9031 42.4727 14.7871 43.7967 14.7871ZM43.7967 13.9944C43.0206 13.9944 42.5848 13.4258 42.5848 12.438C42.5848 11.4585 43.0206 10.8857 43.7967 10.8857C44.5687 10.8857 45.0086 11.4585 45.0086 12.438C45.0086 13.4216 44.5687 13.9944 43.7967 13.9944Z" fill="white"/>
<path d="M52.818 10.1802H51.9256L51.1205 13.6292H51.0499L50.1202 10.1802H49.2652L48.3355 13.6292H48.2691L47.4598 10.1802H46.555L47.8001 14.7H48.7174L49.6471 11.3713H49.7176L50.6515 14.7H51.577L52.818 10.1802Z" fill="white"/>
<path d="M53.8456 14.7H54.7379V12.0562C54.7379 11.3506 55.1571 10.9106 55.817 10.9106C56.477 10.9106 56.7924 11.2717 56.7924 11.998V14.7H57.6847V11.7739C57.6847 10.699 57.1286 10.093 56.12 10.093C55.4394 10.093 54.9911 10.396 54.7711 10.8982H54.7047V10.1802H53.8456V14.7Z" fill="white"/>
<path d="M59.09 14.7H59.9824V8.41626H59.09V14.7Z" fill="white"/>
<path d="M63.3384 14.7871C64.6582 14.7871 65.4675 13.9031 65.4675 12.438C65.4675 10.9812 64.6541 10.093 63.3384 10.093C62.0186 10.093 61.2051 10.9812 61.2051 12.438C61.2051 13.9031 62.0144 14.7871 63.3384 14.7871ZM63.3384 13.9944C62.5623 13.9944 62.1265 13.4258 62.1265 12.438C62.1265 11.4585 62.5623 10.8857 63.3384 10.8857C64.1104 10.8857 64.5503 11.4585 64.5503 12.438C64.5503 13.4216 64.1104 13.9944 63.3384 13.9944Z" fill="white"/>
<path d="M68.1263 14.0234C67.6407 14.0234 67.2879 13.7869 67.2879 13.3801C67.2879 12.9817 67.5701 12.77 68.1927 12.7285L69.2967 12.658V13.0356C69.2967 13.5959 68.7986 14.0234 68.1263 14.0234ZM67.898 14.7747C68.4915 14.7747 68.9854 14.5173 69.2552 14.0649H69.3257V14.7H70.1849V11.6121C70.1849 10.6575 69.5457 10.093 68.4126 10.093C67.3875 10.093 66.657 10.5911 66.5657 11.3672H67.429C67.5286 11.0476 67.8731 10.865 68.3711 10.865C68.9812 10.865 69.2967 11.1348 69.2967 11.6121V12.0022L68.0723 12.0728C66.9974 12.1392 66.3914 12.6082 66.3914 13.4216C66.3914 14.2476 67.0264 14.7747 67.898 14.7747Z" fill="white"/>
<path d="M73.213 14.7747C73.8355 14.7747 74.3626 14.48 74.6324 13.9861H74.703V14.7H75.558V8.41626H74.6656V10.8982H74.5992C74.3543 10.4001 73.8314 10.1055 73.213 10.1055C72.0716 10.1055 71.337 11.0103 71.337 12.438C71.337 13.8699 72.0633 14.7747 73.213 14.7747ZM73.4662 10.9065C74.2132 10.9065 74.6822 11.5 74.6822 12.4421C74.6822 13.3884 74.2174 13.9736 73.4662 13.9736C72.7108 13.9736 72.2584 13.3967 72.2584 12.438C72.2584 11.4875 72.7149 10.9065 73.4662 10.9065Z" fill="white"/>
<path d="M128 0.5H7C3.41015 0.5 0.5 3.41015 0.5 7V33C0.5 36.5899 3.41015 39.5 7 39.5H128C131.59 39.5 134.5 36.5899 134.5 33V7C134.5 3.41015 131.59 0.5 128 0.5Z" stroke="white"/>
<g clip-path="url(#clip1_611_27)">
<path d="M10.6376 16.1544C10.3102 16.1544 10.0325 16.2686 9.80413 16.4969C9.57581 16.7252 9.46161 16.9992 9.46161 17.319V22.2288C9.46161 22.5566 9.57577 22.8341 9.80413 23.0625C10.0325 23.2908 10.3102 23.405 10.6376 23.405C10.9647 23.405 11.2408 23.2908 11.4656 23.0625C11.6899 22.8341 11.8024 22.5566 11.8024 22.2288V17.319C11.8024 16.9992 11.6882 16.7252 11.4599 16.4969C11.2315 16.2686 10.9574 16.1544 10.6376 16.1544Z" fill="white"/>
<path d="M20.092 11.7468L20.9027 10.2513C20.9559 10.1523 20.937 10.0764 20.8458 10.023C20.7467 9.97694 20.6706 10.0003 20.6174 10.0913L19.7954 11.5988C19.0721 11.279 18.307 11.1188 17.5002 11.1188C16.6933 11.1188 15.9282 11.279 15.2051 11.5988L14.383 10.0913C14.3296 10.0003 14.2535 9.97715 14.1547 10.023C14.0633 10.0766 14.0443 10.1523 14.0978 10.2513L14.9085 11.7468C14.0864 12.1661 13.4317 12.7499 12.9445 13.4997C12.4574 14.2499 12.2137 15.0697 12.2137 15.9605H22.7753C22.7753 15.0699 22.5316 14.2501 22.0445 13.4997C21.5573 12.7499 20.9063 12.1661 20.092 11.7468ZM15.4049 13.9221C15.3172 14.01 15.2125 14.0538 15.0907 14.0538C14.9688 14.0538 14.8662 14.01 14.7825 13.9221C14.6988 13.8347 14.657 13.7304 14.657 13.6082C14.657 13.4865 14.6988 13.382 14.7825 13.2943C14.8662 13.2069 14.969 13.1631 15.0907 13.1631C15.2125 13.1631 15.3172 13.2069 15.4049 13.2943C15.4923 13.3822 15.5363 13.4865 15.5363 13.6082C15.536 13.7302 15.4921 13.8347 15.4049 13.9221ZM20.2175 13.9221C20.1337 14.01 20.0308 14.0538 19.9093 14.0538C19.7873 14.0538 19.6826 14.01 19.5951 13.9221C19.5075 13.8347 19.4638 13.7304 19.4638 13.6082C19.4638 13.4865 19.5075 13.382 19.5951 13.2943C19.6826 13.2069 19.7873 13.1631 19.9093 13.1631C20.031 13.1631 20.1336 13.2069 20.2175 13.2943C20.3013 13.3822 20.3431 13.4865 20.3431 13.6082C20.3431 13.7302 20.3012 13.8347 20.2175 13.9221Z" fill="white"/>
<path d="M12.259 23.9758C12.259 24.3263 12.3808 24.623 12.6242 24.8664C12.8679 25.1099 13.1646 25.2316 13.5148 25.2316H14.3598L14.3714 27.8239C14.3714 28.1512 14.4856 28.4292 14.7139 28.6575C14.9422 28.8859 15.2164 29 15.536 29C15.8632 29 16.1411 28.8859 16.3694 28.6575C16.5978 28.4292 16.712 28.1512 16.712 27.8239V25.2319H18.2876V27.8239C18.2876 28.1512 18.4018 28.4292 18.6301 28.6575C18.8585 28.8859 19.1362 29 19.4636 29C19.7907 29 20.0687 28.8859 20.297 28.6575C20.5254 28.4292 20.6395 28.1512 20.6395 27.8239V25.2319H21.4959C21.8384 25.2319 22.1313 25.1101 22.3752 24.8666C22.6186 24.6232 22.7404 24.3265 22.7404 23.976V16.3712H12.259V23.9758Z" fill="white"/>
<path d="M24.3625 16.1544C24.0427 16.1544 23.7687 16.2669 23.5404 16.4912C23.312 16.716 23.1979 16.9921 23.1979 17.319V22.2288C23.1979 22.5566 23.312 22.8341 23.5404 23.0625C23.7687 23.2908 24.0429 23.405 24.3625 23.405C24.6896 23.405 24.9676 23.2908 25.1959 23.0625C25.4243 22.8341 25.5384 22.5566 25.5384 22.2288V17.319C25.5384 16.992 25.4243 16.716 25.1959 16.4912C24.9676 16.2669 24.6896 16.1544 24.3625 16.1544Z" fill="white"/>
</g>
<path d="M80.2257 14H79.1547L80.7866 9.27273H82.0746L83.7042 14H82.6332L81.449 10.353H81.4121L80.2257 14ZM80.1587 12.1419H82.6886V12.9221H80.1587V12.1419ZM84.2732 14V9.27273H86.1382C86.4968 9.27273 86.8022 9.3412 87.0546 9.47816C87.307 9.61358 87.4993 9.80208 87.6317 10.0437C87.7655 10.2837 87.8325 10.5607 87.8325 10.8746C87.8325 11.1886 87.7648 11.4656 87.6294 11.7056C87.4939 11.9457 87.2977 12.1326 87.0407 12.2665C86.7853 12.4004 86.476 12.4673 86.1128 12.4673H84.9241V11.6664H85.9513C86.1436 11.6664 86.3021 11.6333 86.4268 11.5671C86.5529 11.4994 86.6468 11.4063 86.7084 11.2878C86.7715 11.1678 86.803 11.0301 86.803 10.8746C86.803 10.7177 86.7715 10.5807 86.7084 10.4638C86.6468 10.3453 86.5529 10.2537 86.4268 10.1891C86.3006 10.1229 86.1405 10.0898 85.9466 10.0898H85.2726V14H84.2732ZM88.4817 14V9.27273H89.4811V11.3571H89.5435L91.2446 9.27273H92.4426L90.6883 11.3894L92.4634 14H91.2677L89.9728 12.0565L89.4811 12.6566V14H88.4817ZM96.2541 14.0646C96.0109 14.0631 95.7763 14.0223 95.5501 13.9423C95.3254 13.8623 95.1238 13.7322 94.9453 13.5522C94.7668 13.3722 94.6252 13.1336 94.5206 12.8366C94.4175 12.5397 94.3659 12.175 94.3659 11.7425C94.3675 11.3455 94.4129 10.9908 94.5021 10.6784C94.5929 10.3645 94.7222 10.0983 94.8899 9.87979C95.0592 9.66128 95.2615 9.49509 95.497 9.38121C95.7324 9.2658 95.9963 9.2081 96.2887 9.2081C96.6042 9.2081 96.8827 9.26965 97.1243 9.39276C97.3659 9.51432 97.5598 9.67975 97.706 9.88903C97.8537 10.0983 97.9429 10.333 97.9737 10.593H96.9881C96.9496 10.4284 96.8688 10.2991 96.7457 10.2053C96.6226 10.1114 96.4703 10.0645 96.2887 10.0645C95.9809 10.0645 95.747 10.1983 95.587 10.4661C95.4285 10.7338 95.3477 11.0978 95.3446 11.5579H95.377C95.4477 11.4179 95.5431 11.2986 95.6632 11.2001C95.7847 11.1001 95.9225 11.0239 96.0763 10.9716C96.2318 10.9177 96.3957 10.8908 96.568 10.8908C96.8481 10.8908 97.0974 10.957 97.3159 11.0893C97.5344 11.2201 97.7067 11.4002 97.8329 11.6294C97.9591 11.8587 98.0222 12.1211 98.0222 12.4165C98.0222 12.7366 97.9476 13.0213 97.7983 13.2706C97.6506 13.5199 97.4436 13.7153 97.1774 13.8569C96.9127 13.9969 96.6049 14.0662 96.2541 14.0646ZM96.2495 13.2798C96.4034 13.2798 96.5411 13.2429 96.6626 13.169C96.7842 13.0952 96.8796 12.9951 96.9489 12.869C97.0181 12.7428 97.0527 12.6012 97.0527 12.4442C97.0527 12.2873 97.0181 12.1465 96.9489 12.0218C96.8812 11.8972 96.7873 11.7979 96.6673 11.7241C96.5472 11.6502 96.4103 11.6133 96.2564 11.6133C96.141 11.6133 96.034 11.6348 95.9355 11.6779C95.8386 11.721 95.7532 11.781 95.6793 11.858C95.607 11.9349 95.5501 12.0241 95.5085 12.1257C95.467 12.2257 95.4462 12.3327 95.4462 12.4466C95.4462 12.5989 95.4808 12.7382 95.5501 12.8643C95.6209 12.9905 95.7163 13.0913 95.8363 13.1667C95.9579 13.2421 96.0956 13.2798 96.2495 13.2798ZM99.118 14.06C98.9657 14.06 98.8349 14.0062 98.7256 13.8984C98.6179 13.7892 98.5641 13.6584 98.5641 13.506C98.5641 13.3552 98.6179 13.226 98.7256 13.1183C98.8349 13.0105 98.9657 12.9567 99.118 12.9567C99.2658 12.9567 99.395 13.0105 99.5058 13.1183C99.6166 13.226 99.672 13.3552 99.672 13.506C99.672 13.6076 99.6458 13.7007 99.5935 13.7853C99.5427 13.8684 99.4758 13.9354 99.3927 13.9862C99.3096 14.0354 99.2181 14.06 99.118 14.06ZM102.133 14.1039C101.736 14.1023 101.395 14.0046 101.108 13.8107C100.824 13.6168 100.604 13.336 100.45 12.9682C100.298 12.6004 100.223 12.158 100.224 11.641C100.224 11.1255 100.3 10.6861 100.453 10.323C100.607 9.95981 100.826 9.68359 101.111 9.49432C101.397 9.3035 101.738 9.2081 102.133 9.2081C102.529 9.2081 102.869 9.3035 103.153 9.49432C103.44 9.68513 103.66 9.96212 103.814 10.3253C103.967 10.6869 104.044 11.1255 104.042 11.641C104.042 12.1596 103.965 12.6027 103.811 12.9705C103.659 13.3383 103.44 13.6191 103.156 13.813C102.871 14.0069 102.53 14.1039 102.133 14.1039ZM102.133 13.2752C102.404 13.2752 102.62 13.139 102.782 12.8667C102.943 12.5943 103.023 12.1857 103.022 11.641C103.022 11.2824 102.985 10.9839 102.911 10.7454C102.839 10.5069 102.736 10.3276 102.602 10.2076C102.469 10.0875 102.313 10.0275 102.133 10.0275C101.864 10.0275 101.648 10.1622 101.487 10.4315C101.325 10.7008 101.244 11.1039 101.242 11.641C101.242 12.0041 101.278 12.3073 101.351 12.5504C101.425 12.792 101.528 12.9736 101.662 13.0952C101.796 13.2152 101.953 13.2752 102.133 13.2752ZM106.167 13.2798V10.0114H106.994V13.2798H106.167ZM104.946 12.0588V11.2324H108.215V12.0588H104.946Z" fill="white"/>
<path d="M34.7713 34H31.4759L36.4972 19.4545H40.4602L45.4744 34H42.179L38.5355 22.7784H38.4219L34.7713 34ZM34.5653 28.2827H42.3494V30.6832H34.5653V28.2827ZM50.1939 27.6932V34H47.1683V23.0909H50.0518V25.0156H50.1797C50.4212 24.3812 50.826 23.8793 51.3942 23.5099C51.9624 23.1359 52.6513 22.9489 53.4609 22.9489C54.2185 22.9489 54.879 23.1146 55.4425 23.446C56.0059 23.7775 56.4439 24.2509 56.7564 24.8665C57.0689 25.4773 57.2251 26.2064 57.2251 27.054V34H54.1996V27.5938C54.2043 26.9261 54.0339 26.4053 53.6882 26.0312C53.3426 25.6525 52.8667 25.4631 52.2607 25.4631C51.8535 25.4631 51.4936 25.5507 51.1811 25.7259C50.8733 25.901 50.6319 26.1567 50.4567 26.4929C50.2862 26.8243 50.1986 27.2244 50.1939 27.6932ZM63.6296 34.1776C62.801 34.1776 62.0505 33.9645 61.3782 33.5384C60.7106 33.1075 60.1803 32.4754 59.7873 31.642C59.399 30.804 59.2049 29.7765 59.2049 28.5597C59.2049 27.3097 59.4061 26.2704 59.8086 25.4418C60.2111 24.6084 60.7461 23.9858 61.4137 23.5739C62.0861 23.1572 62.8223 22.9489 63.6225 22.9489C64.2333 22.9489 64.7423 23.053 65.1495 23.2614C65.5614 23.465 65.8929 23.7206 66.1438 24.0284C66.3995 24.3314 66.5936 24.6297 66.7262 24.9233H66.8185V19.4545H69.837V34H66.854V32.2528H66.7262C66.5842 32.5559 66.3829 32.8565 66.1225 33.1548C65.8668 33.4484 65.533 33.6922 65.1211 33.8864C64.7139 34.0805 64.2167 34.1776 63.6296 34.1776ZM64.5884 31.7699C65.0761 31.7699 65.488 31.6373 65.8242 31.3722C66.1651 31.1023 66.4255 30.7259 66.6055 30.2429C66.7901 29.7599 66.8825 29.1941 66.8825 28.5455C66.8825 27.8968 66.7925 27.3333 66.6126 26.8551C66.4326 26.3769 66.1722 26.0076 65.8313 25.7472C65.4904 25.4867 65.0761 25.3565 64.5884 25.3565C64.0913 25.3565 63.6722 25.4915 63.3313 25.7614C62.9904 26.0312 62.7324 26.4053 62.5572 26.8835C62.382 27.3617 62.2944 27.9157 62.2944 28.5455C62.2944 29.1799 62.382 29.741 62.5572 30.2287C62.7371 30.7116 62.9951 31.0904 63.3313 31.3651C63.6722 31.6349 64.0913 31.7699 64.5884 31.7699ZM72.3246 34V23.0909H75.2578V24.9943H75.3714C75.5703 24.3172 75.9041 23.8059 76.3729 23.4602C76.8416 23.1098 77.3814 22.9347 77.9922 22.9347C78.1437 22.9347 78.3071 22.9441 78.4822 22.9631C78.6574 22.982 78.8113 23.008 78.9439 23.0412V25.7259C78.8018 25.6832 78.6054 25.6454 78.3544 25.6122C78.1035 25.5791 77.8738 25.5625 77.6655 25.5625C77.2204 25.5625 76.8227 25.6596 76.4723 25.8537C76.1267 26.0431 75.852 26.3082 75.6484 26.6491C75.4496 26.9901 75.3501 27.383 75.3501 27.8281V34H72.3246ZM80.5082 34V23.0909H83.5337V34H80.5082ZM82.0281 21.6847C81.5782 21.6847 81.1924 21.5355 80.8704 21.2372C80.5531 20.9342 80.3945 20.572 80.3945 20.1506C80.3945 19.7339 80.5531 19.3764 80.8704 19.0781C81.1924 18.7751 81.5782 18.6236 82.0281 18.6236C82.4779 18.6236 82.8614 18.7751 83.1786 19.0781C83.5006 19.3764 83.6616 19.7339 83.6616 20.1506C83.6616 20.572 83.5006 20.9342 83.1786 21.2372C82.8614 21.5355 82.4779 21.6847 82.0281 21.6847ZM90.8864 34.2131C89.7831 34.2131 88.8291 33.9787 88.0241 33.5099C87.224 33.0365 86.6061 32.3783 86.1705 31.5355C85.7348 30.688 85.517 29.7055 85.517 28.5881C85.517 27.4612 85.7348 26.4763 86.1705 25.6335C86.6061 24.786 87.224 24.1278 88.0241 23.6591C88.8291 23.1856 89.7831 22.9489 90.8864 22.9489C91.9896 22.9489 92.9413 23.1856 93.7415 23.6591C94.5464 24.1278 95.1667 24.786 95.6023 25.6335C96.0379 26.4763 96.2557 27.4612 96.2557 28.5881C96.2557 29.7055 96.0379 30.688 95.6023 31.5355C95.1667 32.3783 94.5464 33.0365 93.7415 33.5099C92.9413 33.9787 91.9896 34.2131 90.8864 34.2131ZM90.9006 31.8693C91.4025 31.8693 91.8215 31.7273 92.1577 31.4432C92.4938 31.1544 92.7472 30.7614 92.9176 30.2642C93.0928 29.767 93.1804 29.2012 93.1804 28.5668C93.1804 27.9323 93.0928 27.3665 92.9176 26.8693C92.7472 26.3722 92.4938 25.9792 92.1577 25.6903C91.8215 25.4015 91.4025 25.2571 90.9006 25.2571C90.3939 25.2571 89.9678 25.4015 89.6222 25.6903C89.2813 25.9792 89.0232 26.3722 88.848 26.8693C88.6776 27.3665 88.5923 27.9323 88.5923 28.5668C88.5923 29.2012 88.6776 29.767 88.848 30.2642C89.0232 30.7614 89.2813 31.1544 89.6222 31.4432C89.9678 31.7273 90.3939 31.8693 90.9006 31.8693ZM102.243 34.1776C101.414 34.1776 100.664 33.9645 99.9915 33.5384C99.3239 33.1075 98.7936 32.4754 98.4006 31.642C98.0123 30.804 97.8182 29.7765 97.8182 28.5597C97.8182 27.3097 98.0194 26.2704 98.4219 25.4418C98.8243 24.6084 99.3594 23.9858 100.027 23.5739C100.699 23.1572 101.436 22.9489 102.236 22.9489C102.847 22.9489 103.356 23.053 103.763 23.2614C104.175 23.465 104.506 23.7206 104.757 24.0284C105.013 24.3314 105.207 24.6297 105.339 24.9233H105.432V19.4545H108.45V34H105.467V32.2528H105.339C105.197 32.5559 104.996 32.8565 104.736 33.1548C104.48 33.4484 104.146 33.6922 103.734 33.8864C103.327 34.0805 102.83 34.1776 102.243 34.1776ZM103.202 31.7699C103.689 31.7699 104.101 31.6373 104.438 31.3722C104.778 31.1023 105.039 30.7259 105.219 30.2429C105.403 29.7599 105.496 29.1941 105.496 28.5455C105.496 27.8968 105.406 27.3333 105.226 26.8551C105.046 26.3769 104.786 26.0076 104.445 25.7472C104.104 25.4867 103.689 25.3565 103.202 25.3565C102.705 25.3565 102.286 25.4915 101.945 25.7614C101.604 26.0312 101.346 26.4053 101.17 26.8835C100.995 27.3617 100.908 27.9157 100.908 28.5455C100.908 29.1799 100.995 29.741 101.17 30.2287C101.35 30.7116 101.608 31.0904 101.945 31.3651C102.286 31.6349 102.705 31.7699 103.202 31.7699Z" fill="white"/>
</g>
<defs>
<clipPath id="clip0_611_27">
<rect width="135" height="40" fill="white"/>
</clipPath>
<clipPath id="clip1_611_27">
<rect width="19" height="19" fill="white" transform="translate(8 10)"/>
</clipPath>
</defs>
</svg>
